<mxfile host="app.diagrams.net" agent="Mozilla/5.0 (Windows NT 10.0; Win64; x64) AppleWebKit/537.36 (KHTML, like Gecko) Chrome/131.0.0.0 Safari/537.36" version="25.0.3">
  <diagram name="Trang-1" id="RsBz9VkTQKzEHJC4Uw_y">
    <mxGraphModel dx="1702" dy="474" grid="1" gridSize="10" guides="1" tooltips="1" connect="1" arrows="1" fold="1" page="1" pageScale="1" pageWidth="827" pageHeight="1169" math="0" shadow="0">
      <root>
        <mxCell id="0" />
        <mxCell id="1" parent="0" />
        <mxCell id="sc5J6ZGXAxC4H3JBdzpV-8" value="" style="group;fontSize=14;" parent="1" vertex="1" connectable="0">
          <mxGeometry x="-660" y="1360" width="410" height="160" as="geometry" />
        </mxCell>
        <mxCell id="sc5J6ZGXAxC4H3JBdzpV-1" value="&lt;font style=&quot;font-size: 24px;&quot;&gt;Config&lt;/font&gt;" style="shape=folder;fontStyle=1;spacingTop=10;tabWidth=40;tabHeight=14;tabPosition=left;html=1;whiteSpace=wrap;align=center;verticalAlign=top;labelPosition=center;verticalLabelPosition=middle;horizontal=1;fontSize=14;" parent="sc5J6ZGXAxC4H3JBdzpV-8" vertex="1">
          <mxGeometry width="410" height="160" as="geometry" />
        </mxCell>
        <mxCell id="sc5J6ZGXAxC4H3JBdzpV-6" value="&lt;p style=&quot;margin:0px;margin-top:4px;text-align:center;&quot;&gt;&lt;b&gt;ModelMapperConfig&lt;/b&gt;&lt;/p&gt;&lt;hr style=&quot;border-style:solid;&quot;&gt;&lt;div style=&quot;height:2px;&quot;&gt;&lt;/div&gt;" style="verticalAlign=top;align=left;overflow=fill;html=1;whiteSpace=wrap;fontSize=14;" parent="sc5J6ZGXAxC4H3JBdzpV-8" vertex="1">
          <mxGeometry x="47.674418604651166" y="62.22222222222223" width="133.48837209302326" height="53.33333333333334" as="geometry" />
        </mxCell>
        <mxCell id="sc5J6ZGXAxC4H3JBdzpV-7" value="&lt;p style=&quot;margin:0px;margin-top:4px;text-align:center;&quot;&gt;&lt;b&gt;SecurityConfig&lt;/b&gt;&lt;/p&gt;&lt;hr style=&quot;border-style:solid;&quot;&gt;&lt;div style=&quot;height:2px;&quot;&gt;&lt;/div&gt;" style="verticalAlign=top;align=left;overflow=fill;html=1;whiteSpace=wrap;fontSize=14;" parent="sc5J6ZGXAxC4H3JBdzpV-8" vertex="1">
          <mxGeometry x="238.37209302325581" y="62.22222222222223" width="133.48837209302326" height="53.33333333333334" as="geometry" />
        </mxCell>
        <mxCell id="sc5J6ZGXAxC4H3JBdzpV-34" value="" style="group;fontSize=14;" parent="1" vertex="1" connectable="0">
          <mxGeometry x="-640" y="400.0000000000001" width="510" height="240" as="geometry" />
        </mxCell>
        <mxCell id="sc5J6ZGXAxC4H3JBdzpV-32" value="&lt;font style=&quot;font-size: 24px;&quot;&gt;DTO&lt;/font&gt;" style="shape=folder;fontStyle=1;spacingTop=10;tabWidth=40;tabHeight=14;tabPosition=left;html=1;whiteSpace=wrap;align=center;verticalAlign=top;labelPosition=center;verticalLabelPosition=middle;horizontal=1;container=0;fontSize=14;" parent="sc5J6ZGXAxC4H3JBdzpV-34" vertex="1">
          <mxGeometry width="510" height="240" as="geometry" />
        </mxCell>
        <mxCell id="sc5J6ZGXAxC4H3JBdzpV-21" value="&lt;p style=&quot;margin:0px;margin-top:4px;text-align:center;&quot;&gt;&lt;b&gt;UserDTO&lt;/b&gt;&lt;/p&gt;&lt;hr style=&quot;border-style:solid;&quot;&gt;&lt;div style=&quot;height:2px;&quot;&gt;&lt;/div&gt;" style="verticalAlign=top;align=left;overflow=fill;html=1;whiteSpace=wrap;container=0;fontSize=14;" parent="sc5J6ZGXAxC4H3JBdzpV-34" vertex="1">
          <mxGeometry x="340.0039534883722" y="130.00421052631566" width="143.25581395348837" height="63.1578947368421" as="geometry" />
        </mxCell>
        <mxCell id="sc5J6ZGXAxC4H3JBdzpV-23" value="&lt;p style=&quot;margin:0px;margin-top:4px;text-align:center;&quot;&gt;&lt;b&gt;ResidentDTO&lt;/b&gt;&lt;/p&gt;&lt;hr style=&quot;border-style:solid;&quot;&gt;&lt;div style=&quot;height:2px;&quot;&gt;&lt;/div&gt;" style="verticalAlign=top;align=left;overflow=fill;html=1;whiteSpace=wrap;container=0;fontSize=14;" parent="sc5J6ZGXAxC4H3JBdzpV-34" vertex="1">
          <mxGeometry x="20.003953488372133" y="50.00421052631566" width="143.25581395348837" height="63.1578947368421" as="geometry" />
        </mxCell>
        <mxCell id="sc5J6ZGXAxC4H3JBdzpV-26" value="&lt;p style=&quot;margin:0px;margin-top:4px;text-align:center;&quot;&gt;&lt;b&gt;OtherResidentDTO&lt;/b&gt;&lt;/p&gt;&lt;hr style=&quot;border-style:solid;&quot;&gt;&lt;div style=&quot;height:2px;&quot;&gt;&lt;/div&gt;" style="verticalAlign=top;align=left;overflow=fill;html=1;whiteSpace=wrap;container=0;fontSize=14;" parent="sc5J6ZGXAxC4H3JBdzpV-34" vertex="1">
          <mxGeometry x="183.3739534883722" y="50.00421052631566" width="143.25581395348837" height="63.1578947368421" as="geometry" />
        </mxCell>
        <mxCell id="sc5J6ZGXAxC4H3JBdzpV-29" value="&lt;p style=&quot;margin:0px;margin-top:4px;text-align:center;&quot;&gt;&lt;b&gt;ContributionDTO&lt;/b&gt;&lt;/p&gt;&lt;hr style=&quot;border-style:solid;&quot;&gt;&lt;div style=&quot;height:2px;&quot;&gt;&lt;/div&gt;" style="verticalAlign=top;align=left;overflow=fill;html=1;whiteSpace=wrap;container=0;fontSize=14;" parent="sc5J6ZGXAxC4H3JBdzpV-34" vertex="1">
          <mxGeometry x="183.37395348837214" y="130.00421052631566" width="143.25581395348837" height="63.1578947368421" as="geometry" />
        </mxCell>
        <mxCell id="sc5J6ZGXAxC4H3JBdzpV-30" value="&lt;p style=&quot;margin:0px;margin-top:4px;text-align:center;&quot;&gt;&lt;b&gt;FeeDTO&lt;/b&gt;&lt;/p&gt;&lt;hr style=&quot;border-style:solid;&quot;&gt;&lt;div style=&quot;height:2px;&quot;&gt;&lt;/div&gt;" style="verticalAlign=top;align=left;overflow=fill;html=1;whiteSpace=wrap;container=0;fontSize=14;" parent="sc5J6ZGXAxC4H3JBdzpV-34" vertex="1">
          <mxGeometry x="20.003953488372133" y="130.00421052631566" width="143.25581395348837" height="63.1578947368421" as="geometry" />
        </mxCell>
        <mxCell id="sc5J6ZGXAxC4H3JBdzpV-31" value="&lt;p style=&quot;margin:0px;margin-top:4px;text-align:center;&quot;&gt;&lt;b&gt;HouseholdDTO&lt;/b&gt;&lt;/p&gt;&lt;hr style=&quot;border-style:solid;&quot;&gt;&lt;div style=&quot;height:2px;&quot;&gt;&lt;/div&gt;" style="verticalAlign=top;align=left;overflow=fill;html=1;whiteSpace=wrap;container=0;fontSize=14;" parent="sc5J6ZGXAxC4H3JBdzpV-34" vertex="1">
          <mxGeometry x="340.0039534883722" y="50.00421052631566" width="143.25581395348837" height="63.1578947368421" as="geometry" />
        </mxCell>
        <mxCell id="sc5J6ZGXAxC4H3JBdzpV-44" value="" style="group;fontSize=14;" parent="1" vertex="1" connectable="0">
          <mxGeometry x="1730" y="540" width="350" height="220" as="geometry" />
        </mxCell>
        <mxCell id="sc5J6ZGXAxC4H3JBdzpV-36" value="&lt;span&gt;&lt;font style=&quot;font-size: 24px;&quot;&gt;Exception&lt;/font&gt;&lt;/span&gt;" style="shape=folder;fontStyle=1;spacingTop=10;tabWidth=40;tabHeight=14;tabPosition=left;html=1;whiteSpace=wrap;align=center;verticalAlign=top;labelPosition=center;verticalLabelPosition=middle;horizontal=1;container=0;fontSize=14;" parent="sc5J6ZGXAxC4H3JBdzpV-44" vertex="1">
          <mxGeometry width="350" height="220" as="geometry" />
        </mxCell>
        <mxCell id="sc5J6ZGXAxC4H3JBdzpV-38" value="&lt;p style=&quot;margin:0px;margin-top:4px;text-align:center;&quot;&gt;&lt;b&gt;BadRequestException&lt;/b&gt;&lt;/p&gt;&lt;hr style=&quot;border-style:solid;&quot;&gt;&lt;div style=&quot;height:2px;&quot;&gt;&lt;/div&gt;" style="verticalAlign=top;align=left;overflow=fill;html=1;whiteSpace=wrap;container=0;fontSize=14;" parent="sc5J6ZGXAxC4H3JBdzpV-44" vertex="1">
          <mxGeometry x="20.00395348837219" y="50.004210526315774" width="143.25581395348837" height="63.1578947368421" as="geometry" />
        </mxCell>
        <mxCell id="sc5J6ZGXAxC4H3JBdzpV-39" value="&lt;p style=&quot;margin:0px;margin-top:4px;text-align:center;&quot;&gt;&lt;b&gt;ConflictException&lt;/b&gt;&lt;/p&gt;&lt;hr style=&quot;border-style:solid;&quot;&gt;&lt;div style=&quot;height:2px;&quot;&gt;&lt;/div&gt;" style="verticalAlign=top;align=left;overflow=fill;html=1;whiteSpace=wrap;container=0;fontSize=14;" parent="sc5J6ZGXAxC4H3JBdzpV-44" vertex="1">
          <mxGeometry x="183.3739534883722" y="50.004210526315774" width="143.25581395348837" height="63.1578947368421" as="geometry" />
        </mxCell>
        <mxCell id="sc5J6ZGXAxC4H3JBdzpV-41" value="&lt;b style=&quot;background-color: initial;&quot;&gt;ResourceNotFound Exception&lt;/b&gt;&lt;br&gt;&lt;hr style=&quot;background-color: initial; border-style: solid;&quot;&gt;" style="verticalAlign=middle;align=center;overflow=fill;html=1;whiteSpace=wrap;container=0;fontSize=14;" parent="sc5J6ZGXAxC4H3JBdzpV-44" vertex="1">
          <mxGeometry x="20.00395348837219" y="130.00421052631577" width="143.25581395348837" height="63.1578947368421" as="geometry" />
        </mxCell>
        <mxCell id="sc5J6ZGXAxC4H3JBdzpV-42" value="&lt;p style=&quot;margin: 4px 0px 0px;&quot;&gt;&lt;b&gt;GlobalExceptionHandle&lt;/b&gt;&lt;/p&gt;&lt;hr style=&quot;border-style:solid;&quot;&gt;&lt;div style=&quot;height:2px;&quot;&gt;&lt;/div&gt;" style="verticalAlign=top;align=center;overflow=fill;html=1;whiteSpace=wrap;container=0;fontSize=14;" parent="sc5J6ZGXAxC4H3JBdzpV-44" vertex="1">
          <mxGeometry x="183.3739534883722" y="130.00421052631577" width="143.25581395348837" height="63.1578947368421" as="geometry" />
        </mxCell>
        <mxCell id="sc5J6ZGXAxC4H3JBdzpV-64" value="" style="group;fontSize=14;" parent="1" vertex="1" connectable="0">
          <mxGeometry x="940" y="740" width="510" height="240" as="geometry" />
        </mxCell>
        <mxCell id="sc5J6ZGXAxC4H3JBdzpV-55" value="&lt;span&gt;&lt;font style=&quot;font-size: 24px;&quot;&gt;Model&lt;/font&gt;&lt;/span&gt;" style="shape=folder;fontStyle=1;spacingTop=10;tabWidth=40;tabHeight=14;tabPosition=left;html=1;whiteSpace=wrap;align=center;verticalAlign=top;labelPosition=center;verticalLabelPosition=middle;horizontal=1;container=0;fontSize=14;" parent="sc5J6ZGXAxC4H3JBdzpV-64" vertex="1">
          <mxGeometry width="510" height="240" as="geometry" />
        </mxCell>
        <mxCell id="sc5J6ZGXAxC4H3JBdzpV-56" value="&lt;p style=&quot;margin:0px;margin-top:4px;text-align:center;&quot;&gt;&lt;b&gt;Contribution&lt;/b&gt;&lt;/p&gt;&lt;hr style=&quot;border-style:solid;&quot;&gt;&lt;div style=&quot;height:2px;&quot;&gt;&lt;/div&gt;" style="verticalAlign=top;align=left;overflow=fill;html=1;whiteSpace=wrap;container=0;fontSize=14;" parent="sc5J6ZGXAxC4H3JBdzpV-64" vertex="1">
          <mxGeometry x="183.37395348837214" y="50.004210526315774" width="143.25581395348837" height="63.1578947368421" as="geometry" />
        </mxCell>
        <mxCell id="sc5J6ZGXAxC4H3JBdzpV-57" value="&lt;p style=&quot;margin:0px;margin-top:4px;text-align:center;&quot;&gt;&lt;b&gt;User&lt;/b&gt;&lt;/p&gt;&lt;hr style=&quot;border-style:solid;&quot;&gt;&lt;div style=&quot;height:2px;&quot;&gt;&lt;/div&gt;" style="verticalAlign=top;align=left;overflow=fill;html=1;whiteSpace=wrap;container=0;fontSize=14;" parent="sc5J6ZGXAxC4H3JBdzpV-64" vertex="1">
          <mxGeometry x="270.0039534883722" y="136.8442105263158" width="143.25581395348837" height="63.1578947368421" as="geometry" />
        </mxCell>
        <mxCell id="sc5J6ZGXAxC4H3JBdzpV-58" value="&lt;p style=&quot;margin:0px;margin-top:4px;text-align:center;&quot;&gt;&lt;b&gt;Resident&lt;/b&gt;&lt;/p&gt;&lt;hr style=&quot;border-style:solid;&quot;&gt;&lt;div style=&quot;height:2px;&quot;&gt;&lt;/div&gt;" style="verticalAlign=top;align=left;overflow=fill;html=1;whiteSpace=wrap;container=0;fontSize=14;" parent="sc5J6ZGXAxC4H3JBdzpV-64" vertex="1">
          <mxGeometry x="100.00395348837219" y="136.8442105263158" width="143.25581395348837" height="63.1578947368421" as="geometry" />
        </mxCell>
        <mxCell id="sc5J6ZGXAxC4H3JBdzpV-59" value="&lt;p style=&quot;margin:0px;margin-top:4px;text-align:center;&quot;&gt;&lt;b&gt;Household&lt;/b&gt;&lt;/p&gt;&lt;hr style=&quot;border-style:solid;&quot;&gt;&lt;div style=&quot;height:2px;&quot;&gt;&lt;/div&gt;" style="verticalAlign=top;align=left;overflow=fill;html=1;whiteSpace=wrap;container=0;fontSize=14;" parent="sc5J6ZGXAxC4H3JBdzpV-64" vertex="1">
          <mxGeometry x="346.5239534883722" y="50.004210526315774" width="143.25581395348837" height="63.1578947368421" as="geometry" />
        </mxCell>
        <mxCell id="sc5J6ZGXAxC4H3JBdzpV-60" value="&lt;p style=&quot;margin:0px;margin-top:4px;text-align:center;&quot;&gt;&lt;b&gt;FeeController&lt;/b&gt;&lt;/p&gt;&lt;hr style=&quot;border-style:solid;&quot;&gt;&lt;div style=&quot;height:2px;&quot;&gt;&lt;/div&gt;" style="verticalAlign=top;align=left;overflow=fill;html=1;whiteSpace=wrap;container=0;fontSize=14;" parent="sc5J6ZGXAxC4H3JBdzpV-64" vertex="1">
          <mxGeometry x="20.00395348837219" y="50.004210526315774" width="143.25581395348837" height="63.1578947368421" as="geometry" />
        </mxCell>
        <mxCell id="rf8PoIKGnRGIaHFTe1I7-6" value="" style="group;fontSize=14;" parent="1" vertex="1" connectable="0">
          <mxGeometry x="30" y="600" width="610" height="460" as="geometry" />
        </mxCell>
        <mxCell id="sc5J6ZGXAxC4H3JBdzpV-66" value="&lt;font style=&quot;font-size: 24px;&quot;&gt;Service&lt;/font&gt;" style="shape=folder;fontStyle=1;spacingTop=10;tabWidth=40;tabHeight=14;tabPosition=left;html=1;whiteSpace=wrap;align=center;verticalAlign=top;labelPosition=center;verticalLabelPosition=middle;horizontal=1;container=0;fontSize=14;" parent="rf8PoIKGnRGIaHFTe1I7-6" vertex="1">
          <mxGeometry width="610" height="460" as="geometry" />
        </mxCell>
        <mxCell id="sc5J6ZGXAxC4H3JBdzpV-67" value="&lt;p style=&quot;margin:0px;margin-top:4px;text-align:center;&quot;&gt;&lt;b&gt;ContributionService&lt;/b&gt;&lt;/p&gt;&lt;hr style=&quot;border-style:solid;&quot;&gt;&lt;div style=&quot;height:2px;&quot;&gt;&lt;/div&gt;" style="verticalAlign=top;align=left;overflow=fill;html=1;whiteSpace=wrap;container=0;fontSize=14;" parent="rf8PoIKGnRGIaHFTe1I7-6" vertex="1">
          <mxGeometry x="225.56020295983086" y="58.97932523616733" width="158.88372093023256" height="74.49392712550608" as="geometry" />
        </mxCell>
        <mxCell id="sc5J6ZGXAxC4H3JBdzpV-68" value="&lt;p style=&quot;margin:0px;margin-top:4px;text-align:center;&quot;&gt;&lt;b&gt;HouseholdService&lt;/b&gt;&lt;/p&gt;&lt;hr style=&quot;border-style:solid;&quot;&gt;&lt;div style=&quot;height:2px;&quot;&gt;&lt;/div&gt;" style="verticalAlign=top;align=left;overflow=fill;html=1;whiteSpace=wrap;container=0;fontSize=14;" parent="rf8PoIKGnRGIaHFTe1I7-6" vertex="1">
          <mxGeometry x="406.5083847780128" y="161.40599190283402" width="158.88372093023256" height="74.49392712550608" as="geometry" />
        </mxCell>
        <mxCell id="sc5J6ZGXAxC4H3JBdzpV-69" value="&lt;p style=&quot;margin: 4px 0px 0px; text-align: center;&quot;&gt;&lt;b&gt;FeeServiceImpl&lt;/b&gt;&lt;/p&gt;&lt;hr style=&quot;border-style: solid;&quot;&gt;" style="verticalAlign=top;align=left;overflow=fill;html=1;whiteSpace=wrap;container=0;fontSize=14;" parent="rf8PoIKGnRGIaHFTe1I7-6" vertex="1">
          <mxGeometry x="225.56020295983086" y="161.40599190283402" width="158.88372093023256" height="74.49392712550608" as="geometry" />
        </mxCell>
        <mxCell id="sc5J6ZGXAxC4H3JBdzpV-70" value="&lt;p style=&quot;margin:0px;margin-top:4px;text-align:center;&quot;&gt;&lt;b&gt;CustomUserDetails Service&lt;/b&gt;&lt;/p&gt;&lt;hr style=&quot;border-style:solid;&quot;&gt;&lt;div style=&quot;height:2px;&quot;&gt;&lt;/div&gt;" style="verticalAlign=top;align=left;overflow=fill;html=1;whiteSpace=wrap;container=0;fontSize=14;" parent="rf8PoIKGnRGIaHFTe1I7-6" vertex="1">
          <mxGeometry x="406.5083847780128" y="58.97932523616733" width="158.88372093023256" height="74.49392712550608" as="geometry" />
        </mxCell>
        <mxCell id="sc5J6ZGXAxC4H3JBdzpV-71" value="&lt;p style=&quot;margin:0px;margin-top:4px;text-align:center;&quot;&gt;&lt;b&gt;FeeService&lt;/b&gt;&lt;/p&gt;&lt;hr style=&quot;border-style:solid;&quot;&gt;&lt;div style=&quot;height:2px;&quot;&gt;&lt;/div&gt;" style="verticalAlign=top;align=left;overflow=fill;html=1;whiteSpace=wrap;container=0;fontSize=14;" parent="rf8PoIKGnRGIaHFTe1I7-6" vertex="1">
          <mxGeometry x="44.36802114164916" y="161.40599190283402" width="158.88372093023256" height="74.49392712550608" as="geometry" />
        </mxCell>
        <mxCell id="sc5J6ZGXAxC4H3JBdzpV-72" value="&lt;p style=&quot;margin:0px;margin-top:4px;text-align:center;&quot;&gt;&lt;b&gt;ContributionServiceImpl&lt;/b&gt;&lt;/p&gt;&lt;hr style=&quot;border-style:solid;&quot;&gt;&lt;div style=&quot;height:2px;&quot;&gt;&lt;/div&gt;" style="verticalAlign=top;align=left;overflow=fill;html=1;whiteSpace=wrap;container=0;fontSize=14;" parent="rf8PoIKGnRGIaHFTe1I7-6" vertex="1">
          <mxGeometry x="44.36802114164916" y="58.97932523616733" width="158.88372093023256" height="74.49392712550608" as="geometry" />
        </mxCell>
        <mxCell id="rf8PoIKGnRGIaHFTe1I7-1" value="&lt;p style=&quot;margin:0px;margin-top:4px;text-align:center;&quot;&gt;&lt;b&gt;HouseholdServiceImpl&lt;/b&gt;&lt;/p&gt;&lt;hr style=&quot;border-style:solid;&quot;&gt;&lt;div style=&quot;height:2px;&quot;&gt;&lt;/div&gt;" style="verticalAlign=top;align=left;overflow=fill;html=1;whiteSpace=wrap;container=0;fontSize=14;" parent="rf8PoIKGnRGIaHFTe1I7-6" vertex="1">
          <mxGeometry x="406.5083847780128" y="259.49214574898787" width="158.88372093023256" height="74.49392712550608" as="geometry" />
        </mxCell>
        <mxCell id="rf8PoIKGnRGIaHFTe1I7-2" value="&lt;p style=&quot;margin:0px;margin-top:4px;text-align:center;&quot;&gt;&lt;b&gt;ResidentService&lt;/b&gt;&lt;/p&gt;&lt;hr style=&quot;border-style:solid;&quot;&gt;&lt;div style=&quot;height:2px;&quot;&gt;&lt;/div&gt;" style="verticalAlign=top;align=left;overflow=fill;html=1;whiteSpace=wrap;container=0;fontSize=14;" parent="rf8PoIKGnRGIaHFTe1I7-6" vertex="1">
          <mxGeometry x="44.36802114164916" y="259.49214574898787" width="158.88372093023256" height="74.49392712550608" as="geometry" />
        </mxCell>
        <mxCell id="rf8PoIKGnRGIaHFTe1I7-3" value="&lt;p style=&quot;margin:0px;margin-top:4px;text-align:center;&quot;&gt;&lt;b&gt;ResidentServiceImpl&lt;/b&gt;&lt;/p&gt;&lt;hr style=&quot;border-style:solid;&quot;&gt;&lt;div style=&quot;height:2px;&quot;&gt;&lt;/div&gt;" style="verticalAlign=top;align=left;overflow=fill;html=1;whiteSpace=wrap;container=0;fontSize=14;" parent="rf8PoIKGnRGIaHFTe1I7-6" vertex="1">
          <mxGeometry x="225.56020295983086" y="259.49214574898787" width="158.88372093023256" height="74.49392712550608" as="geometry" />
        </mxCell>
        <mxCell id="rf8PoIKGnRGIaHFTe1I7-4" value="&lt;p style=&quot;margin:0px;margin-top:4px;text-align:center;&quot;&gt;&lt;b&gt;UserService&lt;/b&gt;&lt;/p&gt;&lt;hr style=&quot;border-style:solid;&quot;&gt;&lt;div style=&quot;height:2px;&quot;&gt;&lt;/div&gt;" style="verticalAlign=top;align=left;overflow=fill;html=1;whiteSpace=wrap;container=0;fontSize=14;" parent="rf8PoIKGnRGIaHFTe1I7-6" vertex="1">
          <mxGeometry x="99.82256659619462" y="365.645991902834" width="158.88372093023256" height="74.49392712550608" as="geometry" />
        </mxCell>
        <mxCell id="rf8PoIKGnRGIaHFTe1I7-5" value="&lt;p style=&quot;margin: 4px 0px 0px; text-align: center;&quot;&gt;&lt;b&gt;UserServiceImpl&lt;/b&gt;&lt;/p&gt;&lt;hr style=&quot;border-style: solid;&quot;&gt;" style="verticalAlign=top;align=left;overflow=fill;html=1;whiteSpace=wrap;container=0;fontSize=14;" parent="rf8PoIKGnRGIaHFTe1I7-6" vertex="1">
          <mxGeometry x="343.82256659619463" y="365.645991902834" width="158.88372093023256" height="74.49392712550608" as="geometry" />
        </mxCell>
        <mxCell id="rf8PoIKGnRGIaHFTe1I7-7" value="" style="group;fontSize=14;" parent="1" vertex="1" connectable="0">
          <mxGeometry x="120" y="1400" width="510" height="240" as="geometry" />
        </mxCell>
        <mxCell id="sc5J6ZGXAxC4H3JBdzpV-47" value="&lt;font style=&quot;font-size: 24px;&quot;&gt;Repository&lt;/font&gt;" style="shape=folder;fontStyle=1;spacingTop=10;tabWidth=40;tabHeight=14;tabPosition=left;html=1;whiteSpace=wrap;align=center;verticalAlign=top;labelPosition=center;verticalLabelPosition=middle;horizontal=1;container=0;fontSize=14;" parent="rf8PoIKGnRGIaHFTe1I7-7" vertex="1">
          <mxGeometry width="510" height="240" as="geometry" />
        </mxCell>
        <mxCell id="sc5J6ZGXAxC4H3JBdzpV-48" value="&lt;p style=&quot;margin:0px;margin-top:4px;text-align:center;&quot;&gt;&lt;b&gt;UserRepository&lt;/b&gt;&lt;/p&gt;&lt;hr style=&quot;border-style:solid;&quot;&gt;&lt;div style=&quot;height:2px;&quot;&gt;&lt;/div&gt;" style="verticalAlign=top;align=left;overflow=fill;html=1;whiteSpace=wrap;container=0;fontSize=14;" parent="rf8PoIKGnRGIaHFTe1I7-7" vertex="1">
          <mxGeometry x="280.0039534883722" y="130.00421052631566" width="143.25581395348837" height="63.1578947368421" as="geometry" />
        </mxCell>
        <mxCell id="sc5J6ZGXAxC4H3JBdzpV-49" value="&lt;p style=&quot;margin:0px;margin-top:4px;text-align:center;&quot;&gt;&lt;b&gt;ContributionRepository&lt;/b&gt;&lt;/p&gt;&lt;hr style=&quot;border-style:solid;&quot;&gt;&lt;div style=&quot;height:2px;&quot;&gt;&lt;/div&gt;" style="verticalAlign=top;align=left;overflow=fill;html=1;whiteSpace=wrap;container=0;fontSize=14;" parent="rf8PoIKGnRGIaHFTe1I7-7" vertex="1">
          <mxGeometry x="20.00395348837219" y="50.00421052631566" width="143.25581395348837" height="63.1578947368421" as="geometry" />
        </mxCell>
        <mxCell id="sc5J6ZGXAxC4H3JBdzpV-50" value="&lt;p style=&quot;margin:0px;margin-top:4px;text-align:center;&quot;&gt;&lt;b&gt;ResidentRepository&lt;/b&gt;&lt;/p&gt;&lt;hr style=&quot;border-style:solid;&quot;&gt;&lt;div style=&quot;height:2px;&quot;&gt;&lt;/div&gt;" style="verticalAlign=top;align=left;overflow=fill;html=1;whiteSpace=wrap;container=0;fontSize=14;" parent="rf8PoIKGnRGIaHFTe1I7-7" vertex="1">
          <mxGeometry x="183.3739534883722" y="50.00421052631566" width="143.25581395348837" height="63.1578947368421" as="geometry" />
        </mxCell>
        <mxCell id="sc5J6ZGXAxC4H3JBdzpV-52" value="&lt;p style=&quot;margin:0px;margin-top:4px;text-align:center;&quot;&gt;&lt;b&gt;FeeRepository&lt;/b&gt;&lt;/p&gt;&lt;hr style=&quot;border-style:solid;&quot;&gt;&lt;div style=&quot;height:2px;&quot;&gt;&lt;/div&gt;" style="verticalAlign=top;align=left;overflow=fill;html=1;whiteSpace=wrap;container=0;fontSize=14;" parent="rf8PoIKGnRGIaHFTe1I7-7" vertex="1">
          <mxGeometry x="80.00395348837219" y="130.00421052631566" width="143.25581395348837" height="63.1578947368421" as="geometry" />
        </mxCell>
        <mxCell id="sc5J6ZGXAxC4H3JBdzpV-53" value="&lt;p style=&quot;margin:0px;margin-top:4px;text-align:center;&quot;&gt;&lt;b&gt;HouseholdRepository&lt;/b&gt;&lt;/p&gt;&lt;hr style=&quot;border-style:solid;&quot;&gt;&lt;div style=&quot;height:2px;&quot;&gt;&lt;/div&gt;" style="verticalAlign=top;align=left;overflow=fill;html=1;whiteSpace=wrap;container=0;fontSize=14;" parent="rf8PoIKGnRGIaHFTe1I7-7" vertex="1">
          <mxGeometry x="340.0039534883722" y="50.00421052631566" width="143.25581395348837" height="63.1578947368421" as="geometry" />
        </mxCell>
        <mxCell id="fc8NallNKGBZCBb7W6Gl-3" value="" style="group;fontSize=14;" vertex="1" connectable="0" parent="1">
          <mxGeometry x="840" y="1280" width="760" height="440" as="geometry" />
        </mxCell>
        <mxCell id="fc8NallNKGBZCBb7W6Gl-4" value="&lt;font style=&quot;font-size: 24px;&quot;&gt;Controller&lt;/font&gt;" style="shape=folder;fontStyle=1;spacingTop=10;tabWidth=40;tabHeight=14;tabPosition=left;html=1;whiteSpace=wrap;align=center;verticalAlign=top;labelPosition=center;verticalLabelPosition=middle;horizontal=1;container=0;fontSize=14;" vertex="1" parent="fc8NallNKGBZCBb7W6Gl-3">
          <mxGeometry width="759.9999999999999" height="440.00000000000006" as="geometry" />
        </mxCell>
        <mxCell id="fc8NallNKGBZCBb7W6Gl-5" value="&lt;p style=&quot;margin:0px;margin-top:4px;text-align:center;&quot;&gt;&lt;b&gt;ContributionController&lt;/b&gt;&lt;/p&gt;&lt;hr style=&quot;border-style:solid;&quot;&gt;&lt;div style=&quot;height:2px;&quot;&gt;&lt;/div&gt;" style="verticalAlign=top;align=left;overflow=fill;html=1;whiteSpace=wrap;container=0;fontSize=14;" vertex="1" parent="fc8NallNKGBZCBb7W6Gl-3">
          <mxGeometry x="269.70525125398996" y="102.55956140350875" width="220.59522723818205" height="112.17105263157896" as="geometry" />
        </mxCell>
        <mxCell id="fc8NallNKGBZCBb7W6Gl-6" value="&lt;p style=&quot;margin:0px;margin-top:4px;text-align:center;&quot;&gt;&lt;b&gt;UserController&lt;/b&gt;&lt;/p&gt;&lt;hr style=&quot;border-style:solid;&quot;&gt;&lt;div style=&quot;height:2px;&quot;&gt;&lt;/div&gt;" style="verticalAlign=top;align=left;overflow=fill;html=1;whiteSpace=wrap;container=0;fontSize=14;" vertex="1" parent="fc8NallNKGBZCBb7W6Gl-3">
          <mxGeometry x="519.3389244566044" y="256.79101973684214" width="220.59522723818205" height="112.17105263157896" as="geometry" />
        </mxCell>
        <mxCell id="fc8NallNKGBZCBb7W6Gl-7" value="&lt;p style=&quot;margin:0px;margin-top:4px;text-align:center;&quot;&gt;&lt;b&gt;ResidentController&lt;/b&gt;&lt;/p&gt;&lt;hr style=&quot;border-style:solid;&quot;&gt;&lt;div style=&quot;height:2px;&quot;&gt;&lt;/div&gt;" style="verticalAlign=top;align=left;overflow=fill;html=1;whiteSpace=wrap;container=0;fontSize=14;" vertex="1" parent="fc8NallNKGBZCBb7W6Gl-3">
          <mxGeometry x="269.70525125399007" y="256.79101973684214" width="220.59522723818205" height="112.17105263157896" as="geometry" />
        </mxCell>
        <mxCell id="fc8NallNKGBZCBb7W6Gl-8" value="&lt;p style=&quot;margin:0px;margin-top:4px;text-align:center;&quot;&gt;&lt;b&gt;HouseholdController&lt;/b&gt;&lt;/p&gt;&lt;hr style=&quot;border-style:solid;&quot;&gt;&lt;div style=&quot;height:2px;&quot;&gt;&lt;/div&gt;" style="verticalAlign=top;align=left;overflow=fill;html=1;whiteSpace=wrap;container=0;fontSize=14;" vertex="1" parent="fc8NallNKGBZCBb7W6Gl-3">
          <mxGeometry x="519.3389244566044" y="102.55956140350875" width="220.59522723818205" height="112.17105263157896" as="geometry" />
        </mxCell>
        <mxCell id="fc8NallNKGBZCBb7W6Gl-9" value="&lt;p style=&quot;margin:0px;margin-top:4px;text-align:center;&quot;&gt;&lt;b&gt;FeeController&lt;/b&gt;&lt;/p&gt;&lt;hr style=&quot;border-style:solid;&quot;&gt;&lt;div style=&quot;height:2px;&quot;&gt;&lt;/div&gt;" style="verticalAlign=top;align=left;overflow=fill;html=1;whiteSpace=wrap;container=0;fontSize=14;" vertex="1" parent="fc8NallNKGBZCBb7W6Gl-3">
          <mxGeometry x="25.331473476212334" y="256.79101973684214" width="220.59522723818205" height="112.17105263157896" as="geometry" />
        </mxCell>
        <mxCell id="fc8NallNKGBZCBb7W6Gl-10" value="&lt;p style=&quot;margin:0px;margin-top:4px;text-align:center;&quot;&gt;&lt;b&gt;AppController&lt;/b&gt;&lt;/p&gt;&lt;hr style=&quot;border-style:solid;&quot;&gt;&lt;div style=&quot;height:2px;&quot;&gt;&lt;/div&gt;" style="verticalAlign=top;align=left;overflow=fill;html=1;whiteSpace=wrap;container=0;fontSize=14;" vertex="1" parent="fc8NallNKGBZCBb7W6Gl-3">
          <mxGeometry x="25.331473476212334" y="102.55956140350875" width="220.59522723818205" height="112.17105263157896" as="geometry" />
        </mxCell>
      </root>
    </mxGraphModel>
  </diagram>
</mxfile>
